<?xml version="1.0" encoding="UTF-8"?>
<svg width="476px" height="144px" viewBox="0 0 476 144" version="1.1" xmlns="http://www.w3.org/2000/svg" xmlns:xlink="http://www.w3.org/1999/xlink">
    <!-- Generator: Sketch 57.1 (83088) - https://sketch.com -->
    <title>Slice</title>
    <desc>Created with Sketch.</desc>
    <g id="RoundDigital" stroke="none" stroke-width="1" fill="none" fill-rule="evenodd">
        <g id="Group" transform="translate(16.000000, -558.000000)">
            <circle id="Oval" fill="#4361EE" cx="60" cy="631" r="60"></circle>
            <g id="SvgjsG3197" transform="translate(25.000000, 602.000000)" fill="#FFFFFF" fill-rule="nonzero">
                <g id="Group-2">
                    <path d="M63.4420994,22.9444444 C60.2571565,22.9444444 57.6023306,25.2309702 57.0156678,28.2471479 L52.1640371,24.9212923 C51.8459669,24.7021139 51.4034959,24.784129 51.1829673,25.1051194 C50.9624386,25.4275237 51.0430164,25.8672946 51.3667411,26.0878871 L56.3455999,29.5014141 L51.3667411,32.914941 C51.0430164,33.1355335 50.9624386,33.5753044 51.1829673,33.8962947 C51.3200909,34.0970904 51.5406195,34.2045585 51.7653891,34.2045585 C51.9039264,34.2045585 52.0424636,34.164965 52.1640371,34.0801218 L57.0156678,30.7542661 C57.6023306,33.7718579 60.2571565,36.0555556 63.4420994,36.0555556 C67.0582041,36.0555556 70,33.1157367 70,29.5 C70,25.8870914 67.0582041,22.9444444 63.4420994,22.9444444 Z M63.4420994,34.6443294 C60.6077405,34.6443294 58.302085,32.3380069 58.302085,29.5028281 C58.302085,26.6662353 60.6077405,24.3584987 63.4420994,24.3584987 C66.2792855,24.3584987 68.5863547,26.6662353 68.5863547,29.5028281 C68.5863547,32.3380069 66.2792855,34.6443294 63.4420994,34.6443294 Z" id="Shape"></path>
                    <path d="M63.4425888,45.8888889 C60.2578836,45.8888889 57.6032558,48.1737541 57.0166368,51.1896066 L52.1639546,47.8655236 C51.8444946,47.6449549 51.4048837,47.7255473 51.182958,48.0493308 C50.9624458,48.3717004 51.0430176,48.8114238 51.3667182,49.0305786 L56.9304109,52.8410439 C57.1410283,56.2683418 59.9652809,59 63.4425888,59 C67.0584236,59 70,56.0576704 70,52.4409097 C70,48.8283907 67.0584236,45.8888889 63.4425888,45.8888889 Z M63.4425888,57.5875121 C60.6084415,57.5875121 58.302958,55.2800244 58.302958,52.4423236 C58.302958,49.6074505 60.6084415,47.3013768 63.4425888,47.3013768 C66.2795632,47.3013768 68.5864602,49.6074505 68.5864602,52.4423236 C68.5864602,55.2800244 66.2795632,57.5875121 63.4425888,57.5875121 Z" id="Shape"></path>
                    <path d="M18.8174095,25.1046534 C18.5954628,24.7837323 18.1558103,24.7017348 17.8349064,24.920866 L12.9831785,28.2445906 C12.3950903,25.2290633 9.74021122,22.9444444 6.55520456,22.9444444 C2.94044112,22.9444444 0,25.885043 0,29.5 C0,33.114957 2.94044112,36.0555556 6.55520456,36.0555556 C9.74021122,36.0555556 12.3950903,33.7709367 12.9831785,30.7554094 L17.8349064,34.079134 C17.9564823,34.163959 18.096436,34.203544 18.2335623,34.203544 C18.4583364,34.203544 18.6802832,34.096099 18.8174095,33.8953466 C19.0379426,33.5730118 18.9559495,33.1333357 18.6336319,32.9142046 L13.6532598,29.5 L18.6322183,26.0872092 C18.9545359,25.8666643 19.0365289,25.4269882 18.8174095,25.1046534 Z M6.55520456,34.6418062 C3.72078896,34.6418062 1.41367362,32.3345674 1.41367362,29.5 C1.41367362,26.6654326 3.71937529,24.3581938 6.55520456,24.3581938 C9.39103384,24.3581938 11.6967355,26.6640189 11.6967355,29.5 C11.6953218,32.3345674 9.38962016,34.6418062 6.55520456,34.6418062 Z" id="Shape"></path>
                    <path d="M22.9645759,22.729908 C23.1059012,22.729908 23.2501403,22.690323 23.375439,22.6069118 L28.3757301,19.2831872 C28.981826,22.2987144 31.7165423,24.5833333 34.9990761,24.5833333 C38.2830668,24.5833333 41.0192401,22.2987144 41.625336,19.2817734 L46.6256271,22.6069118 C46.7509258,22.690323 46.8951649,22.729908 47.0364902,22.729908 C47.268147,22.729908 47.495433,22.622463 47.6367582,22.4231244 C47.8640442,22.1007895 47.7809974,21.6611135 47.4473533,21.4405686 L42.3159356,18.0277778 L47.4473533,14.6149869 C47.7809974,14.394442 47.8640442,13.954766 47.6367582,13.6324312 C47.4094723,13.3100963 46.9563573,13.2295126 46.6256271,13.4486438 L41.625336,16.7737821 C41.0206971,13.7568411 38.2830668,11.4722222 34.9990761,11.4722222 C31.4164083,11.4722222 28.5039427,14.2021721 28.2868555,17.6276867 L22.5522559,21.4405686 C22.2200687,21.6611135 22.1355649,22.1007895 22.3628509,22.4231244 C22.5041761,22.6210493 22.7329191,22.729908 22.9645759,22.729908 Z M34.9990761,12.8845578 C37.9217404,12.8845578 40.2995012,15.1917967 40.2995012,18.0277778 C40.2995012,20.8623451 37.9217404,23.169584 34.9990761,23.169584 C32.0778687,23.169584 29.7015649,20.8637589 29.7015649,18.0277778 C29.7015649,15.1903829 32.0778687,12.8845578 34.9990761,12.8845578 Z" id="Shape"></path>
                    <path d="M51.7653891,11.2578856 C51.9039264,11.2578856 52.0424636,11.2183049 52.1640371,11.1349027 L57.0156678,7.81012279 C57.6023306,10.8267385 60.2571565,13.1111111 63.4420994,13.1111111 C67.0582041,13.1111111 70,10.169416 70,6.55484876 C70,2.94028152 67.0582041,0 63.4420994,0 C59.9645319,0 57.1400686,2.72965559 56.9294354,6.15480084 L51.3667411,9.96727164 C51.0430164,10.1877928 50.9624386,10.6274214 51.1829673,10.9497215 C51.3186772,11.1504522 51.5392059,11.2578856 51.7653891,11.2578856 Z M63.4406858,1.41501048 C66.2778719,1.41501048 68.584941,3.720587 68.584941,6.55626235 C68.584941,9.39193771 66.2778719,11.6989278 63.4406858,11.6989278 C60.6063269,11.6989278 58.3006714,9.39193771 58.3006714,6.55626235 C58.302085,3.720587 60.6063269,1.41501048 63.4406858,1.41501048 Z" id="Shape"></path>
                    <path d="M42.3147897,40.973636 L47.4459145,37.5608451 C47.7795396,37.3403002 47.8625816,36.9006242 47.6353086,36.5797031 C47.4080357,36.258782 46.9549466,36.1753708 46.6242352,36.3959157 L41.6242295,39.7210541 C41.019625,36.7041131 38.282151,34.4166667 34.9983477,34.4166667 C31.7174581,34.4166667 28.9799841,36.7026993 28.3753797,39.7210541 L23.3753739,36.3959157 C23.0417488,36.1739571 22.5901166,36.2559545 22.3628436,36.5797031 C22.1355706,36.902038 22.2200696,37.341714 22.5522378,37.5608451 L28.2865101,41.373727 C28.503585,44.7992416 31.4144275,47.5277778 34.9983477,47.5277778 C38.282151,47.5277778 41.019625,45.2431589 41.6242295,42.2276316 L46.6256921,45.5513562 C46.7509836,45.6361812 46.8952146,45.6757662 47.0365317,45.6757662 C47.2681754,45.6757662 47.4954483,45.5683212 47.6367655,45.3675688 C47.8640385,45.045234 47.7809965,44.605558 47.4473714,44.3864268 L42.3147897,40.973636 Z M34.9983477,46.1126147 C32.077307,46.1126147 29.7011388,43.8067896 29.7011388,40.9722222 C29.7011388,38.1348274 32.077307,35.8275885 34.9983477,35.8275885 C37.9208452,35.8275885 40.2984704,38.1348274 40.2984704,40.9722222 C40.2984704,43.8082033 37.9208452,46.1126147 34.9983477,46.1126147 Z" id="Shape"></path>
                </g>
            </g>
        </g>
        <g id="SvgjsG3198" transform="translate(152.000000, 47.000000)" fill="#132A3A" fill-rule="nonzero">
            <path d="M26.5289332,0.901383066 C37.3034842,0.901383066 49.7077992,8.95966071 49.7077992,25.1667585 C49.7077992,42.0076533 37.3034842,49.7037612 26.5289332,49.7037612 C19.2855376,49.7037612 15.0300426,45.7198936 14.3962455,44.0901296 L14.3962455,66.0014014 L0.0905391211,66.0014014 L0.0905391211,38.7481253 L0.0905391211,1.71626508 L14.3962455,1.71626508 L14.3962455,6.06230246 C15.0300426,5.06633556 19.2855376,0.901383066 26.5289332,0.901383066 L26.5289332,0.901383066 Z M24.446457,37.1183613 C30.6033433,37.1183613 35.8548051,32.9534088 35.8548051,25.1667585 C35.8548051,17.6517355 30.6033433,13.486783 24.446457,13.486783 C18.561198,13.486783 13.7624484,17.561193 13.7624484,25.1667585 C13.7624484,33.0439512 18.561198,37.1183613 24.446457,37.1183613 Z M87.7356264,0.991925511 C89.0032206,0.991925511 90.2708148,0.991925511 91.4478666,1.26355285 L91.4478666,14.9354621 C90.3613573,14.6638348 89.093763,14.6638348 88.1883386,14.6638348 C79.4962638,14.6638348 72.5244955,20.9112635 71.8001559,29.6033383 L71.8001559,48.7983367 L57.4944496,48.7983367 L57.4944496,1.71626508 L71.8001559,1.71626508 L71.8001559,13.2151557 C73.9731746,6.1528449 79.4057214,0.991925511 87.7356264,0.991925511 Z M132.644679,1.71626508 L146.950386,1.71626508 L146.950386,48.7983367 L132.644679,48.7983367 L132.644679,44.0901296 C132.010882,45.7198936 127.755387,49.7037612 120.511992,49.7037612 C109.737441,49.7037612 97.3331256,42.0076533 97.3331256,25.1667585 C97.3331256,8.95966071 109.737441,0.901383066 120.511992,0.901383066 C127.755387,0.901383066 132.010882,5.06633556 132.644679,6.06230246 L132.644679,1.71626508 Z M122.594468,37.1183613 C128.479727,37.1183613 133.278476,33.0439512 133.278476,25.1667585 C133.278476,17.561193 128.479727,13.486783 122.594468,13.486783 C116.437582,13.486783 111.18612,17.6517355 111.18612,25.1667585 C111.18612,32.9534088 116.437582,37.1183613 122.594468,37.1183613 Z M190.04859,1.71626508 L204.354296,1.71626508 L204.354296,48.7983367 C204.354296,63.1040431 189.867505,67.4500805 179.364581,67.4500805 C174.384747,67.4500805 169.857624,66.6351985 166.960266,65.0959769 L166.960266,53.4160015 C169.857624,54.955223 174.203662,55.5890201 179.364581,55.5890201 C187.785029,55.5890201 190.04859,51.2429828 190.04859,48.7983367 L190.04859,44.0901296 C189.414793,45.7198936 185.159298,49.7037612 177.915902,49.7037612 C167.141351,49.7037612 154.737036,42.0076533 154.737036,25.1667585 C154.737036,8.95966071 167.141351,0.901383066 177.915902,0.901383066 C185.159298,0.901383066 189.414793,5.06633556 190.04859,6.06230246 L190.04859,1.71626508 Z M179.998378,37.1183613 C185.883637,37.1183613 190.682387,33.0439512 190.682387,25.1667585 C190.682387,17.561193 185.883637,13.486783 179.998378,13.486783 C173.841492,13.486783 168.59003,17.6517355 168.59003,25.1667585 C168.59003,32.9534088 173.841492,37.1183613 179.998378,37.1183613 Z M243.830802,0.991925511 C245.098397,0.991925511 246.365991,0.991925511 247.543043,1.26355285 L247.543043,14.9354621 C246.456533,14.6638348 245.188939,14.6638348 244.283515,14.6638348 C235.59144,14.6638348 228.619672,20.9112635 227.895332,29.6033383 L227.895332,48.7983367 L213.589626,48.7983367 L213.589626,1.71626508 L227.895332,1.71626508 L227.895332,13.2151557 C230.068351,6.1528449 235.500897,0.991925511 243.830802,0.991925511 Z M288.739855,1.71626508 L303.045562,1.71626508 L303.045562,48.7983367 L288.739855,48.7983367 L288.739855,44.0901296 C288.106058,45.7198936 283.850563,49.7037612 276.607168,49.7037612 C265.832617,49.7037612 253.428302,42.0076533 253.428302,25.1667585 C253.428302,8.95966071 265.832617,0.901383066 276.607168,0.901383066 C283.850563,0.901383066 288.106058,5.06633556 288.739855,6.06230246 L288.739855,1.71626508 Z M278.689644,37.1183613 C284.574903,37.1183613 289.373652,33.0439512 289.373652,25.1667585 C289.373652,17.561193 284.574903,13.486783 278.689644,13.486783 C272.532758,13.486783 267.281296,17.6517355 267.281296,25.1667585 C267.281296,32.9534088 272.532758,37.1183613 278.689644,37.1183613 Z" id="Shape"></path>
        </g>
    </g>
</svg>